<?xml version="1.0" encoding="UTF-8" standalone="no"?>
<!DOCTYPE svg PUBLIC "-//W3C//DTD SVG 1.1//EN" "http://www.w3.org/Graphics/SVG/1.1/DTD/svg11.dtd">
<!-- Generated by graphviz version 2.40.1 (20161225.0304)
 -->
<!-- Title: %0 Pages: 1 -->
<svg width="2088pt" height="2508pt" viewBox="0.00 0.00 2088.45 2508.29" xmlns="http://www.w3.org/2000/svg" xmlns:xlink="http://www.w3.org/1999/xlink">
<g id="graph0" class="graph" transform="scale(1 1) rotate(0) translate(4 2504.2923)">
<title>%0</title>
<polygon fill="#000418" stroke="transparent" points="-4,4 -4,-2504.2923 2084.4526,-2504.2923 2084.4526,4 -4,4"/>
<!-- CardsPersister -->
<g id="node1" class="node">
<title>CardsPersister</title>
<ellipse fill="#cc5614" stroke="#ffffff" cx="832" cy="-2445.8059" rx="54.4729" ry="54.4729"/>
<text text-anchor="middle" x="832" y="-2442.2059" font-family="Ubuntu" font-size="12.00" fill="#000000">CardsPersister</text>
</g>
<!-- PileStore -->
<g id="node5" class="node">
<title>PileStore</title>
<ellipse fill="#3567b2" stroke="#ffffff" cx="924" cy="-2298.601" rx="38.1547" ry="38.1547"/>
<ellipse fill="none" stroke="#ffffff" cx="924" cy="-2298.601" rx="42.1376" ry="42.1376"/>
<text text-anchor="middle" x="924" y="-2295.001" font-family="Ubuntu" font-size="12.00" fill="#000000">PileStore</text>
</g>
<!-- CardsPersister&#45;&gt;PileStore -->
<g id="edge1" class="edge">
<title>CardsPersister-&gt;PileStore</title>
<path fill="none" stroke="#ffffff" stroke-width="2" d="M861.1094,-2399.2293C872.2269,-2381.4407 884.873,-2361.2064 895.8951,-2343.5703"/>
<polygon fill="#ffffff" stroke="#ffffff" stroke-width="2" points="899.1624,-2344.9464 901.4943,-2334.6114 893.2263,-2341.2365 899.1624,-2344.9464"/>
<text text-anchor="middle" x="903.3278" y="-2362.5194" font-family="Ubuntu" font-size="12.00" fill="#ffffff">setPart</text>
</g>
<!-- CardsPersister&#45;&gt;PileStore -->
<g id="edge2" class="edge">
<title>CardsPersister-&gt;PileStore</title>
<path fill="none" stroke="#ffffff" stroke-width="2" d="M833.9164,-2391.2379C836.0443,-2379.9976 839.5857,-2368.6377 845.3384,-2358.9194 853.3924,-2345.3134 865.7971,-2333.7044 878.3922,-2324.4115"/>
<polygon fill="#ffffff" stroke="#ffffff" stroke-width="2" points="880.4589,-2327.2373 886.6527,-2318.6415 876.4504,-2321.4986 880.4589,-2327.2373"/>
<text text-anchor="middle" x="853.3308" y="-2362.5194" font-family="Ubuntu" font-size="12.00" fill="#ffffff">get</text>
</g>
<!-- PilesPersister -->
<g id="node2" class="node">
<title>PilesPersister</title>
<ellipse fill="#cc5614" stroke="#ffffff" cx="1435" cy="-1595.1469" rx="51.5238" ry="51.5238"/>
<text text-anchor="middle" x="1435" y="-1591.5469" font-family="Ubuntu" font-size="12.00" fill="#000000">PilesPersister</text>
</g>
<!-- DeckStore -->
<g id="node6" class="node">
<title>DeckStore</title>
<ellipse fill="#3567b2" stroke="#ffffff" cx="1545" cy="-1263.0995" rx="42.625" ry="42.625"/>
<ellipse fill="none" stroke="#ffffff" cx="1545" cy="-1263.0995" rx="46.6306" ry="46.6306"/>
<text text-anchor="middle" x="1545" y="-1259.4995" font-family="Ubuntu" font-size="12.00" fill="#000000">DeckStore</text>
</g>
<!-- PilesPersister&#45;&gt;DeckStore -->
<g id="edge3" class="edge">
<title>PilesPersister-&gt;DeckStore</title>
<path fill="none" stroke="#ffffff" stroke-width="2" d="M1417.4629,-1546.5191C1400.2063,-1489.6709 1381.7993,-1394.8268 1422.3444,-1327.6647 1437.1771,-1303.0946 1464.8104,-1287.4045 1490.0982,-1277.6532"/>
<polygon fill="#ffffff" stroke="#ffffff" stroke-width="2" points="1491.4303,-1280.8933 1499.6435,-1274.2005 1489.0493,-1274.3107 1491.4303,-1280.8933"/>
<text text-anchor="middle" x="1438.3278" y="-1409.2156" font-family="Ubuntu" font-size="12.00" fill="#ffffff">setPart</text>
</g>
<!-- PilesPersister&#45;&gt;DeckStore -->
<g id="edge4" class="edge">
<title>PilesPersister-&gt;DeckStore</title>
<path fill="none" stroke="#ffffff" stroke-width="2" d="M1452.3479,-1546.2847C1457.7585,-1530.8538 1463.696,-1513.7208 1469,-1497.9666 1489.7457,-1436.3469 1512.5935,-1365.2774 1527.7663,-1317.5985"/>
<polygon fill="#ffffff" stroke="#ffffff" stroke-width="2" points="1531.1899,-1318.3817 1530.884,-1307.7912 1524.5188,-1316.2609 1531.1899,-1318.3817"/>
<text text-anchor="middle" x="1530.3308" y="-1409.2156" font-family="Ubuntu" font-size="12.00" fill="#ffffff">get</text>
</g>
<!-- deckIdsPersister -->
<g id="node3" class="node">
<title>deckIdsPersister</title>
<ellipse fill="#cc5614" stroke="#ffffff" cx="1538" cy="-412.6138" rx="60.3834" ry="60.3834"/>
<text text-anchor="middle" x="1538" y="-409.0138" font-family="Ubuntu" font-size="12.00" fill="#000000">deckIdsPersister</text>
</g>
<!-- localStorage -->
<g id="node7" class="node">
<title>localStorage</title>
<ellipse fill="#aaaaaa" stroke="#ffffff" cx="1761" cy="-192.3634" rx="48.5532" ry="48.5532"/>
<text text-anchor="middle" x="1761" y="-188.7634" font-family="Ubuntu" font-size="12.00" fill="#000000">localStorage</text>
</g>
<!-- deckIdsPersister&#45;&gt;localStorage -->
<g id="edge5" class="edge">
<title>deckIdsPersister-&gt;localStorage</title>
<path fill="none" stroke="#ffffff" stroke-width="2" d="M1581.2611,-369.8862C1621.0865,-330.5517 1679.7842,-272.5778 1719.1545,-233.693"/>
<polygon fill="#ffffff" stroke="#ffffff" stroke-width="2" points="1721.6166,-236.1805 1726.272,-226.6632 1716.6977,-231.2002 1721.6166,-236.1805"/>
<text text-anchor="middle" x="1673.6598" y="-294.4161" font-family="Ubuntu" font-size="12.00" fill="#ffffff">setItem</text>
</g>
<!-- thingPersister -->
<g id="node4" class="node">
<title>thingPersister</title>
<ellipse fill="#cc5614" stroke="#ffffff" cx="1958" cy="-1092.9091" rx="52.2302" ry="52.2302"/>
<text text-anchor="middle" x="1958" y="-1089.3091" font-family="Ubuntu" font-size="12.00" fill="#000000">thingPersister</text>
</g>
<!-- thingPersister&#45;&gt;localStorage -->
<g id="edge6" class="edge">
<title>thingPersister-&gt;localStorage</title>
<path fill="none" stroke="#ffffff" stroke-width="2" d="M1958,-1040.2618C1958,-997.4178 1958,-935.3829 1958,-881.1585 1958,-881.1585 1958,-881.1585 1958,-412.6138 1958,-325.5115 1871.3476,-257.0657 1812.9819,-220.8426"/>
<polygon fill="#ffffff" stroke="#ffffff" stroke-width="2" points="1814.595,-217.7272 1804.2325,-215.5206 1810.9572,-223.7077 1814.595,-217.7272"/>
<text text-anchor="middle" x="1975.6598" y="-643.9223" font-family="Ubuntu" font-size="12.00" fill="#ffffff">setItem</text>
</g>
<!-- PileStore&#45;&gt;thingPersister -->
<g id="edge14" class="edge">
<title>PileStore-&gt;thingPersister</title>
<path fill="none" stroke="#ffffff" stroke-width="2" stroke-dasharray="5,2" d="M966.4859,-2297.8857C1168.8243,-2293.9298 2025,-2270.7682 2025,-2162.0639 2025,-2162.0639 2025,-2162.0639 2025,-1263.0995 2025,-1221.8836 2007.7764,-1178.7117 1990.7946,-1146.1625"/>
<polygon fill="#ffffff" stroke="#ffffff" stroke-width="2" points="1993.8378,-1144.4312 1986.0258,-1137.2741 1987.6695,-1147.7407 1993.8378,-1144.4312"/>
<text text-anchor="middle" x="2037.327" y="-1819.2126" font-family="Ubuntu" font-size="12.00" fill="#ffffff">write</text>
</g>
<!-- onPileChange -->
<g id="node16" class="node">
<title>onPileChange</title>
<ellipse fill="#f2d124" stroke="#ffffff" cx="924" cy="-2162.0639" rx="53.423" ry="53.423"/>
<ellipse fill="none" stroke="#ffffff" cx="924" cy="-2162.0639" rx="57.4383" ry="57.4383"/>
<text text-anchor="middle" x="924" y="-2158.4639" font-family="Ubuntu" font-size="12.00" fill="#000000">onPileChange</text>
</g>
<!-- PileStore&#45;&gt;onPileChange -->
<g id="edge13" class="edge">
<title>PileStore-&gt;onPileChange</title>
<path fill="none" stroke="#ffffff" stroke-width="2" d="M924,-2256.1483C924,-2247.7304 924,-2238.6984 924,-2229.6816"/>
<polygon fill="#ffffff" stroke="#ffffff" stroke-width="2" points="927.5001,-2229.5413 924,-2219.5413 920.5001,-2229.5413 927.5001,-2229.5413"/>
</g>
<!-- DeckStore&#45;&gt;thingPersister -->
<g id="edge11" class="edge">
<title>DeckStore-&gt;thingPersister</title>
<path fill="none" stroke="#ffffff" stroke-width="2" stroke-dasharray="5,2" d="M1591.4558,-1258.4758C1672.1981,-1249.747 1834.3623,-1228.947 1882,-1198.5342 1901.3198,-1186.2001 1917.2635,-1167.0513 1929.4725,-1148.4271"/>
<polygon fill="#ffffff" stroke="#ffffff" stroke-width="2" points="1932.4538,-1150.2609 1934.8179,-1139.9332 1926.5293,-1146.5325 1932.4538,-1150.2609"/>
<text text-anchor="middle" x="1910.327" y="-1187.7342" font-family="Ubuntu" font-size="12.00" fill="#ffffff">write</text>
</g>
<!-- onDeckChange -->
<g id="node14" class="node">
<title>onDeckChange</title>
<ellipse fill="#f2d124" stroke="#ffffff" cx="1545" cy="-1092.9091" rx="57.4334" ry="57.4334"/>
<ellipse fill="none" stroke="#ffffff" cx="1545" cy="-1092.9091" rx="61.4312" ry="61.4312"/>
<text text-anchor="middle" x="1545" y="-1089.3091" font-family="Ubuntu" font-size="12.00" fill="#000000">onDeckChange</text>
</g>
<!-- DeckStore&#45;&gt;onDeckChange -->
<g id="edge10" class="edge">
<title>DeckStore-&gt;onDeckChange</title>
<path fill="none" stroke="#ffffff" stroke-width="2" d="M1545,-1216.1437C1545,-1200.1877 1545,-1181.976 1545,-1164.5384"/>
<polygon fill="#ffffff" stroke="#ffffff" stroke-width="2" points="1548.5001,-1164.3837 1545,-1154.3837 1541.5001,-1164.3837 1548.5001,-1164.3837"/>
</g>
<!-- DeckCollectionStore -->
<g id="node8" class="node">
<title>DeckCollectionStore</title>
<ellipse fill="#3567b2" stroke="#ffffff" cx="1521" cy="-647.5223" rx="74.4948" ry="74.4948"/>
<text text-anchor="middle" x="1521" y="-643.9223" font-family="Ubuntu" font-size="12.00" fill="#000000">DeckCollectionStore</text>
</g>
<!-- DeckCollectionStore&#45;&gt;deckIdsPersister -->
<g id="edge8" class="edge">
<title>DeckCollectionStore-&gt;deckIdsPersister</title>
<path fill="none" stroke="#ffffff" stroke-width="2" d="M1526.3789,-573.1958C1528.4582,-544.4644 1530.8268,-511.7348 1532.8807,-483.3529"/>
<polygon fill="#ffffff" stroke="#ffffff" stroke-width="2" points="1536.3911,-483.3352 1533.6221,-473.1086 1529.4093,-482.8298 1536.3911,-483.3352"/>
<text text-anchor="middle" x="1542.327" y="-523.6116" font-family="Ubuntu" font-size="12.00" fill="#ffffff">write</text>
</g>
<!-- onDeckCollectionChange -->
<g id="node13" class="node">
<title>onDeckCollectionChange</title>
<ellipse fill="#f2d124" stroke="#ffffff" cx="1760" cy="-412.6138" rx="89.2956" ry="89.2956"/>
<text text-anchor="middle" x="1760" y="-409.0138" font-family="Ubuntu" font-size="12.00" fill="#000000">onDeckCollectionChange</text>
</g>
<!-- DeckCollectionStore&#45;&gt;onDeckCollectionChange -->
<g id="edge7" class="edge">
<title>DeckCollectionStore-&gt;onDeckCollectionChange</title>
<path fill="none" stroke="#ffffff" stroke-width="2" d="M1574.3388,-595.0967C1608.1308,-561.8831 1652.2297,-518.5392 1688.9691,-482.4287"/>
<polygon fill="#ffffff" stroke="#ffffff" stroke-width="2" points="1691.5352,-484.8141 1696.2136,-475.3082 1686.6283,-479.8218 1691.5352,-484.8141"/>
</g>
<!-- activeDeckIdentifier -->
<g id="node9" class="node">
<title>activeDeckIdentifier</title>
<ellipse fill="#3567b2" stroke="#ffffff" cx="1741" cy="-647.5223" rx="73.4017" ry="73.4017"/>
<text text-anchor="middle" x="1741" y="-643.9223" font-family="Ubuntu" font-size="12.00" fill="#000000">activeDeckIdentifier</text>
</g>
<!-- activeDeckIdentifier&#45;&gt;onDeckCollectionChange -->
<g id="edge9" class="edge">
<title>activeDeckIdentifier-&gt;onDeckCollectionChange</title>
<path fill="none" stroke="#ffffff" stroke-width="2" d="M1746.9076,-574.4835C1748.5084,-554.6913 1750.2689,-532.9259 1751.9654,-511.9503"/>
<polygon fill="#ffffff" stroke="#ffffff" stroke-width="2" points="1755.4745,-511.9785 1752.7922,-501.7288 1748.4973,-511.4141 1755.4745,-511.9785"/>
</g>
<!-- PileCollectionStore -->
<g id="node10" class="node">
<title>PileCollectionStore</title>
<ellipse fill="#3567b2" stroke="#ffffff" cx="1172" cy="-1822.8126" rx="70.002" ry="70.002"/>
<text text-anchor="middle" x="1172" y="-1819.2126" font-family="Ubuntu" font-size="12.00" fill="#000000">PileCollectionStore</text>
</g>
<!-- PileCollectionStore&#45;&gt;PilesPersister -->
<g id="edge15" class="edge">
<title>PileCollectionStore-&gt;PilesPersister</title>
<path fill="none" stroke="#ffffff" stroke-width="2" stroke-dasharray="5,2" d="M1225.222,-1776.741C1273.0382,-1735.3489 1342.5652,-1675.163 1388.274,-1635.5952"/>
<polygon fill="#ffffff" stroke="#ffffff" stroke-width="2" points="1390.689,-1638.1339 1395.959,-1628.9427 1386.1075,-1632.8414 1390.689,-1638.1339"/>
<text text-anchor="middle" x="1331.327" y="-1695.9273" font-family="Ubuntu" font-size="12.00" fill="#ffffff">write</text>
</g>
<!-- onPileCollectionChange -->
<g id="node15" class="node">
<title>onPileCollectionChange</title>
<ellipse fill="#f2d124" stroke="#ffffff" cx="1070" cy="-1412.8156" rx="85.3021" ry="85.3021"/>
<text text-anchor="middle" x="1070" y="-1409.2156" font-family="Ubuntu" font-size="12.00" fill="#000000">onPileCollectionChange</text>
</g>
<!-- PileCollectionStore&#45;&gt;onPileCollectionChange -->
<g id="edge12" class="edge">
<title>PileCollectionStore-&gt;onPileCollectionChange</title>
<path fill="none" stroke="#ffffff" stroke-width="2" d="M1154.9275,-1754.1883C1137.9663,-1686.0114 1111.8426,-1581.005 1093.0476,-1505.4573"/>
<polygon fill="#ffffff" stroke="#ffffff" stroke-width="2" points="1096.3726,-1504.3249 1090.5619,-1495.4657 1089.5797,-1506.0149 1096.3726,-1504.3249"/>
</g>
<!-- CardCollectionStore -->
<g id="node11" class="node">
<title>CardCollectionStore</title>
<ellipse fill="#3567b2" stroke="#ffffff" cx="314" cy="-1092.9091" rx="73.4509" ry="73.4509"/>
<text text-anchor="middle" x="314" y="-1089.3091" font-family="Ubuntu" font-size="12.00" fill="#000000">CardCollectionStore</text>
</g>
<!-- CardCollectionStore&#45;&gt;CardsPersister -->
<g id="edge19" class="edge">
<title>CardCollectionStore-&gt;CardsPersister</title>
<path fill="none" stroke="#ffffff" stroke-width="2" stroke-dasharray="5,2" d="M247.4087,-1123.7151C155.2368,-1171.4857 0,-1272.7347 0,-1412.8156 0,-2298.601 0,-2298.601 0,-2298.601 0,-2376.4201 571.672,-2426.3731 767.2771,-2441.1875"/>
<polygon fill="#ffffff" stroke="#ffffff" stroke-width="2" points="767.176,-2444.6897 777.4102,-2441.949 767.7006,-2437.7094 767.176,-2444.6897"/>
<text text-anchor="middle" x="12.327" y="-1942.4979" font-family="Ubuntu" font-size="12.00" fill="#ffffff">write</text>
</g>
<!-- onCardCollectionChange -->
<g id="node18" class="node">
<title>onCardCollectionChange</title>
<ellipse fill="#f2d124" stroke="#ffffff" cx="165" cy="-881.1585" rx="88.2511" ry="88.2511"/>
<text text-anchor="middle" x="165" y="-877.5585" font-family="Ubuntu" font-size="12.00" fill="#000000">onCardCollectionChange</text>
</g>
<!-- CardCollectionStore&#45;&gt;onCardCollectionChange -->
<g id="edge16" class="edge">
<title>CardCollectionStore-&gt;onCardCollectionChange</title>
<path fill="none" stroke="#ffffff" stroke-width="2" d="M271.7011,-1032.7963C256.1547,-1010.7025 238.2916,-985.3165 221.6834,-961.7139"/>
<polygon fill="#ffffff" stroke="#ffffff" stroke-width="2" points="224.4842,-959.6122 215.8671,-953.4481 218.7595,-963.6405 224.4842,-959.6122"/>
</g>
<!-- CardStore -->
<g id="node12" class="node">
<title>CardStore</title>
<ellipse fill="#3567b2" stroke="#ffffff" cx="770" cy="-1263.0995" rx="41.105" ry="41.105"/>
<ellipse fill="none" stroke="#ffffff" cx="770" cy="-1263.0995" rx="45.0868" ry="45.0868"/>
<text text-anchor="middle" x="770" y="-1259.4995" font-family="Ubuntu" font-size="12.00" fill="#000000">CardStore</text>
</g>
<!-- CardStore&#45;&gt;thingPersister -->
<g id="edge18" class="edge">
<title>CardStore-&gt;thingPersister</title>
<path fill="none" stroke="#ffffff" stroke-width="2" stroke-dasharray="5,2" d="M815.2868,-1260.9008C988.7381,-1252.1616 1610.5806,-1217.8295 1801,-1166.1342 1836.642,-1156.4581 1874.2147,-1139.2165 1903.6651,-1123.8938"/>
<polygon fill="#ffffff" stroke="#ffffff" stroke-width="2" points="1905.3248,-1126.9754 1912.533,-1119.2106 1902.0559,-1120.7856 1905.3248,-1126.9754"/>
<text text-anchor="middle" x="1710.327" y="-1187.7342" font-family="Ubuntu" font-size="12.00" fill="#ffffff">write</text>
</g>
<!-- onCardChange -->
<g id="node19" class="node">
<title>onCardChange</title>
<ellipse fill="#f2d124" stroke="#ffffff" cx="647" cy="-1092.9091" rx="56.3743" ry="56.3743"/>
<ellipse fill="none" stroke="#ffffff" cx="647" cy="-1092.9091" rx="60.3872" ry="60.3872"/>
<text text-anchor="middle" x="647" y="-1089.3091" font-family="Ubuntu" font-size="12.00" fill="#000000">onCardChange</text>
</g>
<!-- CardStore&#45;&gt;onCardChange -->
<g id="edge17" class="edge">
<title>CardStore-&gt;onCardChange</title>
<path fill="none" stroke="#ffffff" stroke-width="2" d="M743.3108,-1226.1707C727.2507,-1203.9489 706.468,-1175.1927 688.3214,-1150.084"/>
<polygon fill="#ffffff" stroke="#ffffff" stroke-width="2" points="690.9733,-1147.7781 682.279,-1141.7234 685.2999,-1151.8784 690.9733,-1147.7781"/>
</g>
<!-- RenderDeckCollection -->
<g id="node21" class="node">
<title>RenderDeckCollection</title>
<ellipse fill="#35b242" stroke="#ffffff" cx="2000" cy="-192.3634" rx="80.4053" ry="80.4053"/>
<text text-anchor="middle" x="2000" y="-188.7634" font-family="Ubuntu" font-size="12.00" fill="#000000">RenderDeckCollection</text>
</g>
<!-- onDeckCollectionChange&#45;&gt;RenderDeckCollection -->
<g id="edge20" class="edge">
<title>onDeckCollectionChange-&gt;RenderDeckCollection</title>
<path fill="none" stroke="#ffffff" stroke-width="2" d="M1825.8985,-352.1381C1859.1834,-321.5922 1899.4919,-284.6007 1932.9383,-253.9066"/>
<polygon fill="#ffffff" stroke="#ffffff" stroke-width="2" points="1935.4019,-256.3962 1940.4032,-247.056 1930.6689,-251.2388 1935.4019,-256.3962"/>
</g>
<!-- RenderDeck -->
<g id="node22" class="node">
<title>RenderDeck</title>
<ellipse fill="#35b242" stroke="#ffffff" cx="1522" cy="-881.1585" rx="48.5394" ry="48.5394"/>
<ellipse fill="none" stroke="#ffffff" cx="1522" cy="-881.1585" rx="52.541" ry="52.541"/>
<text text-anchor="middle" x="1522" y="-877.5585" font-family="Ubuntu" font-size="12.00" fill="#000000">RenderDeck</text>
</g>
<!-- onDeckChange&#45;&gt;RenderDeck -->
<g id="edge21" class="edge">
<title>onDeckChange-&gt;RenderDeck</title>
<path fill="none" stroke="#ffffff" stroke-width="2" d="M1538.3474,-1031.6621C1535.3462,-1004.0307 1531.8057,-971.4354 1528.7885,-943.6568"/>
<polygon fill="#ffffff" stroke="#ffffff" stroke-width="2" points="1532.2619,-943.2222 1527.7025,-933.6586 1525.3029,-943.9781 1532.2619,-943.2222"/>
</g>
<!-- RenderPileCollection -->
<g id="node23" class="node">
<title>RenderPileCollection</title>
<ellipse fill="#35b242" stroke="#ffffff" cx="1018" cy="-412.6138" rx="76.4122" ry="76.4122"/>
<text text-anchor="middle" x="1018" y="-409.0138" font-family="Ubuntu" font-size="12.00" fill="#000000">RenderPileCollection</text>
</g>
<!-- onPileCollectionChange&#45;&gt;RenderPileCollection -->
<g id="edge28" class="edge">
<title>onPileCollectionChange-&gt;RenderPileCollection</title>
<path fill="none" stroke="#ffffff" stroke-width="2" d="M1052.9724,-1329.0318C1036.1606,-1249.0471 1008.7182,-1125.4001 979,-1019.684 943.8879,-894.7802 907.71,-870.7148 887,-742.6331 873.5052,-659.1742 855.9194,-631.0341 887,-552.4116 900.0761,-519.3338 925.0865,-489.497 949.779,-465.9653"/>
<polygon fill="#ffffff" stroke="#ffffff" stroke-width="2" points="952.4742,-468.2387 957.4184,-458.8682 947.7098,-463.1103 952.4742,-468.2387"/>
</g>
<!-- RenderPile -->
<g id="node24" class="node">
<title>RenderPile</title>
<ellipse fill="#35b242" stroke="#ffffff" cx="924" cy="-2019.5715" rx="44.067" ry="44.067"/>
<ellipse fill="none" stroke="#ffffff" cx="924" cy="-2019.5715" rx="48.0483" ry="48.0483"/>
<text text-anchor="middle" x="924" y="-2015.9715" font-family="Ubuntu" font-size="12.00" fill="#000000">RenderPile</text>
</g>
<!-- onPileChange&#45;&gt;RenderPile -->
<g id="edge29" class="edge">
<title>onPileChange-&gt;RenderPile</title>
<path fill="none" stroke="#ffffff" stroke-width="2" d="M924,-2104.5175C924,-2095.857 924,-2086.9158 924,-2078.2322"/>
<polygon fill="#ffffff" stroke="#ffffff" stroke-width="2" points="927.5001,-2078.1889 924,-2068.189 920.5001,-2078.189 927.5001,-2078.1889"/>
</g>
<!-- onEstablishPilesContainer -->
<g id="node17" class="node">
<title>onEstablishPilesContainer</title>
<ellipse fill="#f2d124" stroke="#ffffff" cx="1018" cy="-647.5223" rx="91.217" ry="91.217"/>
<ellipse fill="none" stroke="#ffffff" cx="1018" cy="-647.5223" rx="95.2216" ry="95.2216"/>
<text text-anchor="middle" x="1018" y="-643.9223" font-family="Ubuntu" font-size="12.00" fill="#000000">onEstablishPilesContainer</text>
</g>
<!-- onEstablishPilesContainer&#45;&gt;RenderPileCollection -->
<g id="edge24" class="edge">
<title>onEstablishPilesContainer-&gt;RenderPileCollection</title>
<path fill="none" stroke="#ffffff" stroke-width="2" d="M1018,-552.3147C1018,-534.6665 1018,-516.3228 1018,-498.9569"/>
<polygon fill="#ffffff" stroke="#ffffff" stroke-width="2" points="1021.5001,-498.8578 1018,-488.8578 1014.5001,-498.8578 1021.5001,-498.8578"/>
</g>
<!-- onEstablishPilesContainer&#45;&gt;RenderPile -->
<g id="edge25" class="edge">
<title>onEstablishPilesContainer-&gt;RenderPile</title>
<path fill="none" stroke="#ffffff" stroke-width="2" d="M967.8351,-728.4368C945.4361,-772.0285 924,-827.7088 924,-881.1585 924,-1822.8126 924,-1822.8126 924,-1822.8126 924,-1869.2215 924,-1921.7877 924,-1960.9052"/>
<polygon fill="#ffffff" stroke="#ffffff" stroke-width="2" points="920.5001,-1961.0557 924,-1971.0558 927.5001,-1961.0558 920.5001,-1961.0557"/>
</g>
<!-- RenderCardCollection -->
<g id="node25" class="node">
<title>RenderCardCollection</title>
<ellipse fill="#35b242" stroke="#ffffff" cx="291" cy="-1595.1469" rx="79.3611" ry="79.3611"/>
<text text-anchor="middle" x="291" y="-1591.5469" font-family="Ubuntu" font-size="12.00" fill="#000000">RenderCardCollection</text>
</g>
<!-- onCardCollectionChange&#45;&gt;RenderCardCollection -->
<g id="edge30" class="edge">
<title>onCardCollectionChange-&gt;RenderCardCollection</title>
<path fill="none" stroke="#ffffff" stroke-width="2" d="M172.9172,-969.0477C181.4917,-1056.0103 196.9631,-1192.6887 219,-1309.6647 231.7209,-1377.19 250.9355,-1452.5182 266.3163,-1508.835"/>
<polygon fill="#ffffff" stroke="#ffffff" stroke-width="2" points="263.0205,-1510.0509 269.043,-1518.7676 269.7708,-1508.1977 263.0205,-1510.0509"/>
</g>
<!-- RenderCard -->
<g id="node26" class="node">
<title>RenderCard</title>
<ellipse fill="#35b242" stroke="#ffffff" cx="667" cy="-1595.1469" rx="47.4781" ry="47.4781"/>
<ellipse fill="none" stroke="#ffffff" cx="667" cy="-1595.1469" rx="51.4976" ry="51.4976"/>
<text text-anchor="middle" x="667" y="-1591.5469" font-family="Ubuntu" font-size="12.00" fill="#000000">RenderCard</text>
</g>
<!-- onCardChange&#45;&gt;RenderCard -->
<g id="edge31" class="edge">
<title>onCardChange-&gt;RenderCard</title>
<path fill="none" stroke="#ffffff" stroke-width="2" d="M597.791,-1128.1118C571.388,-1150.1481 541.388,-1181.0544 527,-1216.5342 511.4451,-1254.8916 517.6456,-1269.3443 527,-1309.6647 547.3091,-1397.2033 598.401,-1488.8509 632.9136,-1543.9834"/>
<polygon fill="#ffffff" stroke="#ffffff" stroke-width="2" points="630.0023,-1545.9283 638.3031,-1552.5121 635.9198,-1542.1888 630.0023,-1545.9283"/>
</g>
<!-- onEstablishCardsContainer -->
<g id="node20" class="node">
<title>onEstablishCardsContainer</title>
<ellipse fill="#f2d124" stroke="#ffffff" cx="667" cy="-1822.8126" rx="94.1672" ry="94.1672"/>
<ellipse fill="none" stroke="#ffffff" cx="667" cy="-1822.8126" rx="98.1707" ry="98.1707"/>
<text text-anchor="middle" x="667" y="-1819.2126" font-family="Ubuntu" font-size="12.00" fill="#000000">onEstablishCardsContainer</text>
</g>
<!-- onEstablishCardsContainer&#45;&gt;RenderCardCollection -->
<g id="edge26" class="edge">
<title>onEstablishCardsContainer-&gt;RenderCardCollection</title>
<path fill="none" stroke="#ffffff" stroke-width="2" d="M583.0863,-1772.0033C518.5914,-1732.9521 430.2318,-1679.4509 367.632,-1641.5471"/>
<polygon fill="#ffffff" stroke="#ffffff" stroke-width="2" points="369.342,-1638.491 358.9751,-1636.3054 365.7164,-1644.4788 369.342,-1638.491"/>
</g>
<!-- onEstablishCardsContainer&#45;&gt;RenderCard -->
<g id="edge27" class="edge">
<title>onEstablishCardsContainer-&gt;RenderCard</title>
<path fill="none" stroke="#ffffff" stroke-width="2" d="M667,-1724.61C667,-1701.5466 667,-1677.6108 667,-1656.6867"/>
<polygon fill="#ffffff" stroke="#ffffff" stroke-width="2" points="670.5001,-1656.6738 667,-1646.6739 663.5001,-1656.6739 670.5001,-1656.6738"/>
</g>
<!-- addDeck -->
<g id="node27" class="node">
<title>addDeck</title>
<ellipse fill="#990f0f" stroke="#ffffff" cx="1408" cy="-37.4554" rx="37.4108" ry="37.4108"/>
<text text-anchor="middle" x="1408" y="-33.8554" font-family="Ubuntu" font-size="12.00" fill="#000000">addDeck</text>
</g>
<!-- RenderDeckCollection&#45;&gt;addDeck -->
<g id="edge35" class="edge">
<title>RenderDeckCollection-&gt;addDeck</title>
<path fill="none" stroke="#ffffff" stroke-width="2" stroke-dasharray="5,2" d="M1931.1344,-150.5028C1905.2312,-136.3548 1875.0154,-121.6842 1846,-111.9108 1708.7812,-65.6903 1537.2874,-47.2202 1455.5691,-40.6557"/>
<polygon fill="#ffffff" stroke="#ffffff" stroke-width="2" points="1455.828,-37.1653 1445.5862,-39.8775 1455.2839,-44.1442 1455.828,-37.1653"/>
</g>
<!-- RenderDeck&#45;&gt;DeckStore -->
<g id="edge37" class="edge">
<title>RenderDeck-&gt;DeckStore</title>
<path fill="none" stroke="#ffffff" stroke-width="2" stroke-dasharray="5,2" d="M1563.1022,-914.1872C1591.2662,-939.6262 1626.2689,-977.4986 1642,-1019.684 1664.7421,-1080.6707 1666.9139,-1106.0021 1642,-1166.1342 1631.5863,-1191.2688 1611.1457,-1213.2829 1591.7031,-1229.9551"/>
<polygon fill="#ffffff" stroke="#ffffff" stroke-width="2" points="1589.2241,-1227.4636 1583.7525,-1236.5362 1593.6876,-1232.8559 1589.2241,-1227.4636"/>
<text text-anchor="middle" x="1675.3278" y="-1089.3091" font-family="Ubuntu" font-size="12.00" fill="#ffffff">setPart</text>
</g>
<!-- RenderDeck&#45;&gt;DeckStore -->
<g id="edge38" class="edge">
<title>RenderDeck-&gt;DeckStore</title>
<path fill="none" stroke="#ffffff" stroke-width="2" stroke-dasharray="5,2" d="M1487.6517,-921.1229C1467.518,-947.2699 1444.0037,-983.236 1433.3384,-1019.684 1415.0587,-1082.1535 1406.3312,-1106.9127 1433.3384,-1166.1342 1446.2895,-1194.5335 1472.1214,-1217.8272 1495.6797,-1234.4599"/>
<polygon fill="#ffffff" stroke="#ffffff" stroke-width="2" points="1493.9931,-1237.5459 1504.2281,-1240.2835 1497.9342,-1231.7607 1493.9931,-1237.5459"/>
<text text-anchor="middle" x="1440.3308" y="-1089.3091" font-family="Ubuntu" font-size="12.00" fill="#ffffff">del</text>
</g>
<!-- RenderDeck&#45;&gt;DeckCollectionStore -->
<g id="edge39" class="edge">
<title>RenderDeck-&gt;DeckCollectionStore</title>
<path fill="none" stroke="#ffffff" stroke-width="2" stroke-dasharray="5,2" d="M1521.7743,-828.4347C1521.6532,-800.1383 1521.501,-764.5751 1521.3637,-732.4845"/>
<polygon fill="#ffffff" stroke="#ffffff" stroke-width="2" points="1524.8625,-732.186 1521.3196,-722.2011 1517.8626,-732.216 1524.8625,-732.186"/>
<text text-anchor="middle" x="1538.9916" y="-764.2331" font-family="Ubuntu" font-size="12.00" fill="#ffffff">remove</text>
</g>
<!-- RenderDeck&#45;&gt;activeDeckIdentifier -->
<g id="edge36" class="edge">
<title>RenderDeck-&gt;activeDeckIdentifier</title>
<path fill="none" stroke="#ffffff" stroke-width="2" stroke-dasharray="5,2" d="M1557.9182,-842.8399C1592.0314,-806.4468 1643.8779,-751.1353 1683.7001,-708.6517"/>
<polygon fill="#ffffff" stroke="#ffffff" stroke-width="2" points="1686.4513,-710.8345 1690.7366,-701.1449 1681.3441,-706.0473 1686.4513,-710.8345"/>
<text text-anchor="middle" x="1647.3278" y="-764.2331" font-family="Ubuntu" font-size="12.00" fill="#ffffff">setPart</text>
</g>
<!-- RenderDeck&#45;&gt;onEstablishPilesContainer -->
<g id="edge22" class="edge">
<title>RenderDeck-&gt;onEstablishPilesContainer</title>
<path fill="none" stroke="#ffffff" stroke-width="2" stroke-dasharray="5,2" d="M1474.1305,-858.968C1391.6397,-820.7282 1221.2201,-741.7278 1113.646,-691.8604"/>
<polygon fill="#ffffff" stroke="#ffffff" stroke-width="2" points="1114.9486,-688.6065 1104.404,-687.5761 1112.0045,-694.9573 1114.9486,-688.6065"/>
<text text-anchor="middle" x="1310.3212" y="-764.2331" font-family="Ubuntu" font-size="12.00" fill="#ffffff">(one-time)</text>
</g>
<!-- addPile -->
<g id="node28" class="node">
<title>addPile</title>
<ellipse fill="#990f0f" stroke="#ffffff" cx="1152" cy="-192.3634" rx="33.4184" ry="33.4184"/>
<text text-anchor="middle" x="1152" y="-188.7634" font-family="Ubuntu" font-size="12.00" fill="#000000">addPile</text>
</g>
<!-- RenderPileCollection&#45;&gt;addPile -->
<g id="edge40" class="edge">
<title>RenderPileCollection-&gt;addPile</title>
<path fill="none" stroke="#ffffff" stroke-width="2" stroke-dasharray="5,2" d="M1057.6605,-347.4254C1081.0806,-308.9308 1109.8801,-261.5941 1129.4545,-229.4205"/>
<polygon fill="#ffffff" stroke="#ffffff" stroke-width="2" points="1132.5112,-231.1302 1134.7188,-220.7679 1126.531,-227.4918 1132.5112,-231.1302"/>
</g>
<!-- RenderPile&#45;&gt;PileStore -->
<g id="edge42" class="edge">
<title>RenderPile-&gt;PileStore</title>
<path fill="none" stroke="#ffffff" stroke-width="2" stroke-dasharray="5,2" d="M880.6875,-2041.2641C856.9631,-2055.7182 829.7301,-2077.1547 816.3384,-2104.8451 794.1945,-2150.6327 793.3985,-2173.8886 816.3384,-2219.2826 829.0028,-2244.3433 853.7311,-2263.4285 876.2975,-2276.5908"/>
<polygon fill="#ffffff" stroke="#ffffff" stroke-width="2" points="874.6981,-2279.7063 885.1366,-2281.5195 878.1072,-2273.5925 874.6981,-2279.7063"/>
<text text-anchor="middle" x="824.3308" y="-2158.4639" font-family="Ubuntu" font-size="12.00" fill="#ffffff">del</text>
</g>
<!-- RenderPile&#45;&gt;PileStore -->
<g id="edge43" class="edge">
<title>RenderPile-&gt;PileStore</title>
<path fill="none" stroke="#ffffff" stroke-width="2" stroke-dasharray="5,2" d="M965.4079,-2045.4605C984.9686,-2060.2049 1006.3287,-2080.5823 1017,-2104.8451 1037.4767,-2151.4022 1038.3095,-2173.1008 1017,-2219.2826 1006.9769,-2241.0046 987.7465,-2258.9771 969.3618,-2272.2898"/>
<polygon fill="#ffffff" stroke="#ffffff" stroke-width="2" points="967.2375,-2269.5037 961.0104,-2278.0754 971.2237,-2275.2578 967.2375,-2269.5037"/>
<text text-anchor="middle" x="1048.3278" y="-2158.4639" font-family="Ubuntu" font-size="12.00" fill="#ffffff">setPart</text>
</g>
<!-- RenderPile&#45;&gt;PileCollectionStore -->
<g id="edge41" class="edge">
<title>RenderPile-&gt;PileCollectionStore</title>
<path fill="none" stroke="#ffffff" stroke-width="2" stroke-dasharray="5,2" d="M961.9358,-1989.4739C1000.9291,-1958.5372 1062.3276,-1909.8247 1108.6959,-1873.0369"/>
<polygon fill="#ffffff" stroke="#ffffff" stroke-width="2" points="1110.9266,-1875.7349 1116.5852,-1866.7777 1106.5759,-1870.2512 1110.9266,-1875.7349"/>
<text text-anchor="middle" x="1035.9916" y="-1942.4979" font-family="Ubuntu" font-size="12.00" fill="#ffffff">remove</text>
</g>
<!-- RenderPile&#45;&gt;onEstablishCardsContainer -->
<g id="edge23" class="edge">
<title>RenderPile-&gt;onEstablishCardsContainer</title>
<path fill="none" stroke="#ffffff" stroke-width="2" stroke-dasharray="5,2" d="M882.1573,-1995.3253C862.3525,-1983.3485 838.6511,-1968.2776 818.3576,-1953.2979 794.5119,-1935.696 769.7262,-1915.3113 747.2832,-1895.961"/>
<polygon fill="#ffffff" stroke="#ffffff" stroke-width="2" points="749.2959,-1893.0736 739.448,-1889.166 744.7096,-1898.362 749.2959,-1893.0736"/>
<text text-anchor="middle" x="844.3212" y="-1942.4979" font-family="Ubuntu" font-size="12.00" fill="#ffffff">(one-time)</text>
</g>
<!-- addCard -->
<g id="node29" class="node">
<title>addCard</title>
<ellipse fill="#990f0f" stroke="#ffffff" cx="291" cy="-1263.0995" rx="36.3671" ry="36.3671"/>
<text text-anchor="middle" x="291" y="-1259.4995" font-family="Ubuntu" font-size="12.00" fill="#000000">addCard</text>
</g>
<!-- RenderCardCollection&#45;&gt;addCard -->
<g id="edge44" class="edge">
<title>RenderCardCollection-&gt;addCard</title>
<path fill="none" stroke="#ffffff" stroke-width="2" stroke-dasharray="5,2" d="M291,-1515.6133C291,-1451.3995 291,-1363.2364 291,-1309.8736"/>
<polygon fill="#ffffff" stroke="#ffffff" stroke-width="2" points="294.5001,-1309.6824 291,-1299.6825 287.5001,-1309.6825 294.5001,-1309.6824"/>
</g>
<!-- RenderCard&#45;&gt;CardCollectionStore -->
<g id="edge45" class="edge">
<title>RenderCard-&gt;CardCollectionStore</title>
<path fill="none" stroke="#ffffff" stroke-width="2" stroke-dasharray="5,2" d="M637.5106,-1553.1902C576.607,-1466.5385 436.4301,-1267.099 362.1802,-1161.4584"/>
<polygon fill="#ffffff" stroke="#ffffff" stroke-width="2" points="364.9096,-1159.255 356.2958,-1153.0863 359.1826,-1163.2802 364.9096,-1159.255"/>
<text text-anchor="middle" x="479.9916" y="-1259.4995" font-family="Ubuntu" font-size="12.00" fill="#ffffff">remove</text>
</g>
<!-- RenderCard&#45;&gt;CardStore -->
<g id="edge46" class="edge">
<title>RenderCard-&gt;CardStore</title>
<path fill="none" stroke="#ffffff" stroke-width="2" stroke-dasharray="5,2" d="M709.2028,-1565.8491C730.1104,-1548.732 753.3283,-1525.1592 765,-1497.9666 789.7801,-1440.2339 786.5488,-1366.9397 780.0442,-1317.7155"/>
<polygon fill="#ffffff" stroke="#ffffff" stroke-width="2" points="783.4786,-1317.0039 778.6155,-1307.5911 776.5473,-1317.9821 783.4786,-1317.0039"/>
<text text-anchor="middle" x="792.3308" y="-1409.2156" font-family="Ubuntu" font-size="12.00" fill="#ffffff">del</text>
</g>
<!-- RenderCard&#45;&gt;CardStore -->
<g id="edge47" class="edge">
<title>RenderCard-&gt;CardStore</title>
<path fill="none" stroke="#ffffff" stroke-width="2" stroke-dasharray="5,2" d="M668.0819,-1543.6645C671.0397,-1487.9305 681.1198,-1397.6372 714.3444,-1327.6647 718.4932,-1318.9272 724.1514,-1310.4426 730.2777,-1302.6514"/>
<polygon fill="#ffffff" stroke="#ffffff" stroke-width="2" points="733.3604,-1304.418 737.06,-1294.4901 727.9767,-1299.9441 733.3604,-1304.418"/>
<text text-anchor="middle" x="731.3278" y="-1409.2156" font-family="Ubuntu" font-size="12.00" fill="#ffffff">setPart</text>
</g>
<!-- addDeck&#45;&gt;DeckCollectionStore -->
<g id="edge32" class="edge">
<title>addDeck-&gt;DeckCollectionStore</title>
<path fill="none" stroke="#ffffff" stroke-width="2" d="M1405.491,-74.8307C1401.2357,-154.9786 1397.0042,-348.5562 1442,-502.0116 1449.4616,-527.4588 1461.8046,-553.4621 1474.5419,-576.3158"/>
<polygon fill="#ffffff" stroke="#ffffff" stroke-width="2" points="1471.6348,-578.2838 1479.6246,-585.2417 1477.7177,-574.8199 1471.6348,-578.2838"/>
</g>
<!-- addPile&#45;&gt;PileCollectionStore -->
<g id="edge33" class="edge">
<title>addPile-&gt;PileCollectionStore</title>
<path fill="none" stroke="#ffffff" stroke-width="2" d="M1155.6708,-225.5135C1169.27,-351.2959 1216,-811.173 1216,-1191.3342 1216,-1595.1469 1216,-1595.1469 1216,-1595.1469 1216,-1645.8593 1205.3457,-1701.7903 1194.5226,-1745.5242"/>
<polygon fill="#ffffff" stroke="#ffffff" stroke-width="2" points="1191.1267,-1744.6773 1192.0686,-1755.2302 1197.9131,-1746.3932 1191.1267,-1744.6773"/>
<text text-anchor="middle" x="1220.6634" y="-990.884" font-family="Ubuntu" font-size="12.00" fill="#ffffff">add</text>
</g>
<!-- addCard&#45;&gt;CardCollectionStore -->
<g id="edge34" class="edge">
<title>addCard-&gt;CardCollectionStore</title>
<path fill="none" stroke="#ffffff" stroke-width="2" d="M295.8777,-1227.0065C297.9138,-1211.9405 300.37,-1193.7657 302.8077,-1175.7275"/>
<polygon fill="#ffffff" stroke="#ffffff" stroke-width="2" points="306.2864,-1176.1196 304.1573,-1165.7409 299.3495,-1175.182 306.2864,-1176.1196"/>
<text text-anchor="middle" x="310.6634" y="-1187.7342" font-family="Ubuntu" font-size="12.00" fill="#ffffff">add</text>
</g>
</g>
</svg>